# xmcd
#
# Track frame offsets:
# 150
# 14282
# 31735
# 50415
# 70757
# 90007
# 103487
# 113732
# 146860
# 152470
# 192040
# 210912
# 223825
# 245012
# 249437
# 269537
# 286810
# 304747
#
# Disc length: 4288 seconds
#
#
# Revision: 1
# Processed by: cddbd v1.5.1PL2 Copyright (c) Steve Scherf et al.
# Submitted via: FreeRIP 2.30 
#
DISCID=f710be12
DTITLE=Rainer - The Farm - the Farm
DYEAR=2002
DGENRE=blues
TTITLE0=Junkpile
TTITLE1=Where We Are
TTITLE2=Oasis
TTITLE3=The Farm
TTITLE4=Here I Am
TTITLE5=Arabing
TTITLE6=Hard To Remember
TTITLE7=Instrumental # 13
TTITLE8=Instrumental # 9 (wait a minute)
TTITLE9=Instrumental # 5
TTITLE10=Instrumental # 3
TTITLE11=Love Is What
TTITLE12=Joy Is Now
TTITLE13=Shifting Blues
TTITLE14=Instrumental # 4 (slight humming)
TTITLE15=Instrumental # 10 (chore ending)
TTITLE16=Instrumental # 6
TTITLE17=lets pretend to be happy
EXTD=Einfach geniale Steelguitar-Kunst.
EXTT0=
EXTT1=
EXTT2=
EXTT3=
EXTT4=
EXTT5=
EXTT6=
EXTT7=
EXTT8=
EXTT9=
EXTT10=
EXTT11=
EXTT12=
EXTT13=
EXTT14=
EXTT15=
EXTT16=
EXTT17=
PLAYORDER=
